<?xml version="1.0" encoding="UTF-8"?>
<svg width="250px" height="200px" viewBox="0 0 250 200" version="1.1" xmlns="http://www.w3.org/2000/svg" xmlns:xlink="http://www.w3.org/1999/xlink" style="background: #FFFFFF;">
    <!-- Generator: Sketch 59.1 (86144) - https://sketch.com -->
    <title>NoCreditCard</title>
    <desc>Created with Sketch.</desc>
    <g id="NoCreditCard" stroke="none" stroke-width="1" fill="none" fill-rule="evenodd">
        <rect fill="#FFFFFF" x="0" y="0" width="250" height="200"></rect>
        <path d="M207,65 C210.865993,65 214,68.1340068 214,72 C214,75.8659932 210.865993,79 207,79 L167,79 C170.865993,79 174,82.1340068 174,86 C174,89.8659932 170.865993,93 167,93 L189,93 C192.865993,93 196,96.1340068 196,100 C196,103.865993 192.865993,107 189,107 L178.826087,107 C173.951574,107 170,110.134007 170,114 C170,116.577329 172,118.910662 176,121 C179.865993,121 183,124.134007 183,128 C183,131.865993 179.865993,135 176,135 L93,135 C89.1340068,135 86,131.865993 86,128 C86,124.134007 89.1340068,121 93,121 L54,121 C50.1340068,121 47,117.865993 47,114 C47,110.134007 50.1340068,107 54,107 L94,107 C97.8659932,107 101,103.865993 101,100 C101,96.1340068 97.8659932,93 94,93 L69,93 C65.1340068,93 62,89.8659932 62,86 C62,82.1340068 65.1340068,79 69,79 L109,79 C105.134007,79 102,75.8659932 102,72 C102,68.1340068 105.134007,65 109,65 L207,65 Z M207,93 C210.865993,93 214,96.1340068 214,100 C214,103.865993 210.865993,107 207,107 C203.134007,107 200,103.865993 200,100 C200,96.1340068 203.134007,93 207,93 Z" id="Background" fill="#BEDEFF"></path>
        <path d="M69.9524711,70.517534 L152.977279,57.2258164 C154.613301,56.9639003 156.151883,58.0778327 156.413799,59.7138541 C156.414323,59.7171287 156.414842,59.7204042 156.415356,59.7236806 L164.537123,111.555773 C164.793011,113.188817 163.679715,114.721164 162.047529,114.982466 L79.0227206,128.274184 C77.3866992,128.5361 75.8481169,127.422167 75.5862008,125.786146 C75.5856765,125.782871 75.5851577,125.779596 75.5846443,125.776319 L67.462877,73.9442273 C67.2069892,72.3111835 68.3202849,70.7788361 69.9524711,70.517534 Z" id="Rectangle" fill="#FFFFFF"></path>
        <path d="M83.3448504,127.423358 L80.1614896,127.948109 C77.9748078,128.308433 75.9214022,126.755955 75.5749882,124.480488 L68.0499395,75.0390458 C67.7036051,72.7635668 69.1954916,70.6267643 71.3821613,70.2663639 L151.558294,57.0518912 C153.744976,56.6915673 155.798381,58.2440452 156.144795,60.5195116 C156.48216,62.7365966 156.75109,64.5035117 156.951504,65.8202695 M157.523095,69.575722 C157.704628,70.7684246 157.863596,71.8128747 158,72.7090721" id="Shape" stroke="#005EA2" stroke-width="2.5" stroke-linecap="round"></path>
        <path d="M73.9770284,72.7919422 L149.737046,60.9608709 C151.369014,60.7060145 152.899988,61.8182984 153.161959,63.4491391 L160.522114,109.268177 C160.784895,110.90406 159.671776,112.443231 158.035893,112.706011 C158.031587,112.706703 158.02728,112.707385 158.022972,112.708058 L82.2629539,124.539129 C80.6309863,124.793986 79.1000118,123.681702 78.8380411,122.050861 L71.4778857,76.231823 C71.2151051,74.5959402 72.3282244,73.0567695 73.9641072,72.7939889 C73.9684128,72.7932973 73.9727199,72.7926151 73.9770284,72.7919422 Z" id="Rectangle" fill="#BEDEFF"></path>
        <rect id="Rectangle" stroke="#005EA2" stroke-width="2.5" fill="#FFFFFF" x="88.25" y="77.25" width="86.5" height="56.5" rx="4"></rect>
        <rect id="Rectangle" fill="#BEDEFF" x="89.5" y="89" width="84" height="14"></rect>
        <path d="M174.171113,89 L108.330882,89 M168.171113,102 L89.3315548,102 M125.0625,121 L96.7546471,121 M103.289063,89 L96.0926339,89" id="lines" stroke="#005EA2" stroke-width="2.5" stroke-linecap="round" stroke-linejoin="round"></path>
    </g>
</svg>